<svg xmlns="http://www.w3.org/2000/svg" xmlns:xlink="http://www.w3.org/1999/xlink" viewBox="0 0 281.2 320.89"><defs><style>.cls-1{fill:none;}.cls-2{fill:#5fc6ff;}.cls-3{fill:#ff837b;}.cls-4{fill:#ffa348;}.cls-5{fill:#ffe266;}.cls-6{fill:#fcde63;}.cls-7,.cls-8,.cls-9{opacity:0.35;}.cls-7{fill:url(#linear-gradient);}.cls-8{fill:url(#linear-gradient-2);}.cls-9{fill:url(#linear-gradient-3);}.cls-10{fill:#f93838;opacity:0.3;}.cls-11{fill:#61a1ff;opacity:0.5;}.cls-12{fill:#1d5cb7;}</style><linearGradient id="linear-gradient" x1="209.26" y1="218.32" x2="211.15" y2="152.98" gradientUnits="userSpaceOnUse"><stop offset="0" stop-color="#ffa348"/><stop offset="1" stop-color="#ffa348"/></linearGradient><linearGradient id="linear-gradient-2" x1="266.76" y1="219.98" x2="268.64" y2="154.64" xlink:href="#linear-gradient"/><linearGradient id="linear-gradient-3" x1="236.66" y1="219.11" x2="238.55" y2="153.77" xlink:href="#linear-gradient"/></defs><title>símbolo-colorido</title><g id="Layer_2" data-name="Layer 2"><g id="Símbolo"><g id="Símbolo-colorido"><path class="cls-1" d="M166.32,216.82h0Z"/><path class="cls-1" d="M167.91,217.15h0c-.26,0-.51-.07-.76-.12A6,6,0,0,0,167.91,217.15Z"/><path class="cls-1" d="M165.57,216.56l.07,0-.09,0Z"/><path class="cls-2" d="M134.39,269.5V223.16a18.4,18.4,0,0,1-1.92,1.83,22.1,22.1,0,0,1-5.88,3.48,20,20,0,0,1-14.69-.19,1.71,1.71,0,0,1-.33-.17,17.65,17.65,0,0,1-1.77-.82,1.26,1.26,0,0,1-.34-.15c-.27-.13-.53-.29-.8-.45h0l-.27-.21a19.55,19.55,0,0,1-2.69-2,8.61,8.61,0,0,1-1.2-1.13,27,27,0,0,1-7.42-15.47c-1.3-9.9,2.47-20.66,11-26.33,8.12-5.42,18.58-3.93,25.53,2.62a1.62,1.62,0,0,1,.63.64l.06.09a.27.27,0,0,1,.08.07c0-3.74.06-7.48.06-11.22V147.79q-13.27,0-26.53,0a40.54,40.54,0,0,1-23.79-7.59,2.08,2.08,0,0,1-.35-.2c-.13-.09-.24-.2-.37-.3h0l-.2-.17a12.46,12.46,0,0,1-3.34-3.93,1.46,1.46,0,0,1-.17-.24,11.94,11.94,0,0,1-.84-10.6,11.2,11.2,0,0,1,2.85-4.23,15.24,15.24,0,0,0,3.68-4,7.29,7.29,0,0,0,.12-6.75l-.33-.53c-.44-.41-.82-.92-1.23-1.31a12.5,12.5,0,0,0-2.56-1.84A16.61,16.61,0,0,0,76,104.39s-1-.09-1-.1c-.58,0-1.15,0-1.72,0V232.06a29,29,0,0,1,12.11,2.35c7.06,3.11,12.75,9.25,13.82,17.07a20.69,20.69,0,0,1-6.7,18h41.87Z"/><path class="cls-3" d="M193,125.38a67.36,67.36,0,0,1-16.8-48.25,71.12,71.12,0,0,0-3.62,22.6,72.81,72.81,0,0,0,2.86,19.84,70.51,70.51,0,0,0,3.32,9.23c.83,1.84,1.89,3.59,2.74,5.43q10.54,0,21.08,0A74.65,74.65,0,0,1,193,125.38Z"/><path class="cls-4" d="M147.57,29.76q3.84-3,7.93-5.72a126.09,126.09,0,0,1,17.09-9.4c1.45-.66,2.92-1.29,4.39-1.89H147.1V30.11Z"/><path class="cls-2" d="M205.65,18.58a79.08,79.08,0,0,0-21.73,5.28,1.92,1.92,0,0,1-.51.28,115.33,115.33,0,0,0-19.77,10.08,101.46,101.46,0,0,0-9.09,6.44c-2.62,2.1-5,4.49-7.45,6.7v57.25c0,9.77.1,19.72.11,29.57l20.18,0a88,88,0,0,1-7.3-29.42,84.72,84.72,0,0,1,17.48-57.21c10.32-13.36,24.77-23.06,40.52-29A80.72,80.72,0,0,0,205.65,18.58Z"/><path class="cls-5" d="M263.89,30.72a2,2,0,0,1-.27-.17h0l.22.16Z"/><path class="cls-5" d="M255.85,27.73h0Z"/><path class="cls-5" d="M265.19,32.14a.61.61,0,0,1-.07-.14l-.1-.08c-.22-.22-.43-.46-.65-.68s-.78-.67-.81-.72l-.93-.47c-.81-.42-1.64-.82-2.47-1.2a29.82,29.82,0,0,0-3.39-1l-1-.16c-.25,0-.5,0-.06,0h0c-.78-.07-1.56-.15-2.34-.19-1.11-.05-2.29-.1-3.45-.08-.71.05-1.41.09-2.12.16l-.89.11h0A60.33,60.33,0,0,0,239.81,29c-6.34,1.51-13.17,3.8-18.28,8-.69.56-1.34,1.17-2,1.79.54,3.74-1,7.56-5.58,9.69-2,.94-2.56,5.48-2.65,9.6A8.37,8.37,0,0,1,214,59.72a5.5,5.5,0,0,1,2,2,8.3,8.3,0,0,1,2,3.75l.39,2.93v.25c0,.1,0,.19,0,.28.38.74.75,1.46,1.1,2.18l-.06-.22c.48.75,1,1.49,1.49,2.22a1.77,1.77,0,0,1,.18.28l.4.51c1.3,1.63,2.6,3.26,3.85,4.92.59.77,1.15,1.57,1.7,2.4a1.13,1.13,0,0,1,.1-.13c.33-.34.67-.68,1-1a11.44,11.44,0,0,1,0-2.11,10.52,10.52,0,0,1-3-3.93,15.24,15.24,0,0,1-1.21-1,11,11,0,0,1,0-15.59,10,10,0,0,1,2.31-1.72,8.66,8.66,0,0,1,2.2-1.71l2.63-1.11,2.55-.41,1.83-.78a22.05,22.05,0,0,1,3.2-.81,11.33,11.33,0,0,1,3.51-.35,12,12,0,0,1,2.6-.36,33.9,33.9,0,0,1,9.91,1.29,11.31,11.31,0,0,1,8.06,11.62,11.06,11.06,0,0,1,2.72,10.59,11.45,11.45,0,0,1-1.13,2.66l-.15,1.09s0,.06,0,.08l0,.1a1.12,1.12,0,0,1-.05.13L263,80.38l0,.06a12,12,0,0,1-1.82,2.37,11.08,11.08,0,0,1-4.87,2.84l-.84.11a9.35,9.35,0,0,1-.36,1c-.06.15-.14.3-.21.46s-.15.54-.23.82a11.48,11.48,0,0,1-2.26,5.32,10.28,10.28,0,0,1-2.83,4.06,7.45,7.45,0,0,1-.65.61,8.35,8.35,0,0,1-1.05,1.17,25.61,25.61,0,0,1-12.36,6.33,13.16,13.16,0,0,1-3,.26l-.37,0a9.79,9.79,0,0,1-2.24.23c-.43,0-.83,0-1.26,0a13.06,13.06,0,0,1-3.11-.56l-1.13-.22a12,12,0,0,1-2.66-.72,27.21,27.21,0,0,1-5.92-2.75c-.56-.29-1.31-.65-.63-.39l-.06,0a2,2,0,0,1-.28-.23l-.14-.1h0l0,0h0l-.07,0a2.12,2.12,0,0,1-.38-.29l-.14-.11a11.81,11.81,0,0,1-2.51-2.17A10.89,10.89,0,0,1,198.56,94a52.09,52.09,0,0,1-8.79-23.23,54.08,54.08,0,0,0,6.29,37.36,59.82,59.82,0,0,0,14.78,16.6,69.48,69.48,0,0,0,9.42,6.23,47.19,47.19,0,0,0,5.5,2.66c.66.26,1.37.47,2.05.72h0c-.05,0,0,0,0,0h0c13.5,0,27,0,40.51.07,0-5.14.08-10.27.08-15.4V46.46a34,34,0,0,0-3.21-14.28C265.09,32.05,265,32,265.19,32.14Z"/><path class="cls-6" d="M114.54,215.35h0l0,0Z"/><path class="cls-6" d="M245,199.06a8.2,8.2,0,0,1,1.32.11h0a7.74,7.74,0,0,0-1.88-.22,8.13,8.13,0,0,0-8.14,8.14,7.5,7.5,0,0,0,.2,1.79s0,0,0,0a10.19,10.19,0,0,1-.09-1.24A8.61,8.61,0,0,1,245,199.06Z"/><path class="cls-6" d="M198.3,208.58a8.6,8.6,0,0,1,8.28-8.6h-.12V147.54q-29.55-.06-59.1-.07c0,3.71,0,7.42,0,11.13v25.27c0,2.75.27,5.63-.82,8.22a12.05,12.05,0,0,1-17.28,5.44,2.19,2.19,0,0,1-.33-.25,9.37,9.37,0,0,1-1-.7l-.5-.43,0,0a4.31,4.31,0,0,1-.62-.51,3.9,3.9,0,0,1-.33-.38c-.22-.26-.42-.53-.62-.8s-.51-.58-.78-.86-.56-.55-.85-.82A8.48,8.48,0,0,0,119,191c-.5.11-1,.2-1.5.34l-.53.11a3.88,3.88,0,0,0-.44.2c-.53.31-1.26.76-1.91,1.18-3.66,3.16-5.1,7.89-4.81,12.63,0,0,0,.3,0,.54s.06.38.08.47c.13.51.2,1,.33,1.56a12.75,12.75,0,0,0,1,2.83c.29.55.56,1.11.87,1.64q.3.51.63,1c0-.05-.21-.26-.08-.09a13.6,13.6,0,0,0,1.09,1.19c.21.21.44.41.66.62l.28.23c.32.21.65.43,1,.62a7.35,7.35,0,0,0,3.75.9c.88,0,1.72-.36,2.53-.44l-.08,0,.11,0h0a15.62,15.62,0,0,0,1.61-.87c.2-.13.38-.29.56-.43l-.16.12.34-.3a23.54,23.54,0,0,1,1.71-1.77,19,19,0,0,1,1.62-1.76,13.46,13.46,0,0,1,2.32-1.56,12.14,12.14,0,0,1,5.05-1.25,2.9,2.9,0,0,1,.43,0,2.71,2.71,0,0,1,.41,0,13,13,0,0,1,3.61.81c.26.09.52.19.77.3h0a13,13,0,0,1,1.48.78l.37.24.32.23a12,12,0,0,1,4.88,8.11,1.94,1.94,0,0,1,.08.5c.08,2.74,0,5.49,0,8.23v41.66h9.72c10.81,0,21.73-.38,32.53,0,2.72.09,4.44,1.11,6.59,2.68s4.06,2.94,6.08,4.41l4.21,3.05V217.17A8.61,8.61,0,0,1,198.3,208.58Zm-29.49,8.61a8.51,8.51,0,0,1-.88,0h0a6,6,0,0,1-.74-.12,7.72,7.72,0,0,1-.83-.2h0c-.23-.07-.46-.15-.68-.24l-.07,0h0a8.62,8.62,0,1,1,3.26.64Z"/><path class="cls-5" d="M12.85,46.44V74.82q9.3-15.19,18.61-30.39,5.52-9,11-18l5.26-8.6c1-1.69,2-3.42,3.14-5.07-5.52,0-10.65.15-16,2.06-6.14,2.19-10.86,6.06-15,11-.25.41-.58.79-.85,1.18C18.35,28,17.65,29.11,17,30.23c-.53.95-1,1.93-1.47,2.92-.06.12-.11.24-.16.36s-.28.75-.31.84a43,43,0,0,0-1.92,7.25c0,.09,0,.19,0,.27,0,.26-.07.53-.09.79C12.9,43.92,12.87,45.18,12.85,46.44Z"/><path class="cls-5" d="M13.11,42Z"/><path class="cls-5" d="M130.71,12.75H95.2c1.06,1.63,2,3.3,3.07,5,1.82,2.94,3.62,5.88,5.43,8.82q5.77,9.33,11.53,18.67C121.62,55.57,128,66,134.39,76.32V12.75Z"/><path class="cls-5" d="M247.82,99.21A8.35,8.35,0,0,0,248.87,98a7.45,7.45,0,0,0,.65-.61,10.28,10.28,0,0,0,2.83-4.06,11.48,11.48,0,0,0,2.26-5.32,26.43,26.43,0,0,1-1.4,3.66,25.06,25.06,0,0,1-20.73,14.09,13.16,13.16,0,0,0,3-.26A25.61,25.61,0,0,0,247.82,99.21Z"/><path class="cls-5" d="M229.87,106.07a9.79,9.79,0,0,0,2.24-.23,27.65,27.65,0,0,1-6.61-.37,13.06,13.06,0,0,0,3.11.56C229,106.05,229.44,106.08,229.87,106.07Z"/><path class="cls-5" d="M211.49,98.35a11.81,11.81,0,0,0,2.51,2.17,13,13,0,0,1-1.34-1.12,40.55,40.55,0,0,1-2.84-3c-1.58-1.86-3.16-3.76-4.57-5.78a47.17,47.17,0,0,1-7.15-15.52,47.88,47.88,0,0,1,.65-25.34,51.74,51.74,0,0,0-6.68,12.56,55.68,55.68,0,0,0-2.3,8.43A52.09,52.09,0,0,0,198.56,94,10.89,10.89,0,0,0,211.49,98.35Z"/><path class="cls-5" d="M221.71,104.53a12,12,0,0,0,2.66.72A27.5,27.5,0,0,1,221.71,104.53Z"/><path class="cls-5" d="M255.41,85.76l.84-.11a11.08,11.08,0,0,0,4.87-2.84,12,12,0,0,0,1.82-2.37l0-.06,1.11-2.63a1.12,1.12,0,0,0,.05-.13l0-.1s0,0,0-.08l.15-1.09a11.45,11.45,0,0,0,1.13-2.66,11.06,11.06,0,0,0-2.72-10.59,11.31,11.31,0,0,0-8.06-11.62,33.9,33.9,0,0,0-9.91-1.29,12,12,0,0,0-2.6.36,11.33,11.33,0,0,0-3.51.35,22.05,22.05,0,0,0-3.2.81l-1.83.78-2.55.41L228.44,54a8.66,8.66,0,0,0-2.2,1.71,10,10,0,0,0-2.31,1.72,11,11,0,0,0,0,15.59,15.24,15.24,0,0,0,1.21,1,10.52,10.52,0,0,0,3,3.93,11.44,11.44,0,0,0,0,2.11c-.34.33-.68.67-1,1a1.13,1.13,0,0,0-.1.13c-.55-.83-1.11-1.63-1.7-2.4-1.25-1.66-2.55-3.29-3.85-4.92l-.4-.51a1.77,1.77,0,0,0-.18-.28c-.51-.73-1-1.47-1.49-2.22l.06.22c-.35-.72-.72-1.44-1.1-2.18,0-.09,0-.18,0-.28v-.25L218,65.45a8.3,8.3,0,0,0-2-3.75,5.5,5.5,0,0,0-2-2,8.37,8.37,0,0,0-2.72-1.66c.09-4.12.62-8.66,2.65-9.6,4.61-2.13,6.12-6,5.58-9.69a34.06,34.06,0,0,0-8.5,13.93,35.24,35.24,0,0,0-.27,20.59,35.24,35.24,0,0,0,7.41,13.32c.39.44.77.86,1.11,1.31.18.19.35.4.51.58s.41.46.62.68c.4.43.8.85,1.23,1.24.28.18.53.41.83.59a14.23,14.23,0,0,0,2.86,1.38,15.5,15.5,0,0,0,5.73.82,12.88,12.88,0,0,0,6.29-2.07,13.77,13.77,0,0,0,1.36-1l.27-.22.25-.26c.48-.5.93-1,1.36-1.52a7.43,7.43,0,0,1,.95-1.5c.09-.17.18-.35.28-.52,0,.48,0,.53,0,.15a.21.21,0,0,0,0-.06,1.68,1.68,0,0,1,.07-.33c.16-.76.58-1.57.76-2.29.12-.46.17-1,.32-1.48a16.17,16.17,0,0,0-2.52-10.27c-.14-.21-.29-.42-.43-.64a.92.92,0,0,1-.19-.25,12.27,12.27,0,0,1-1.74-2.21,2.25,2.25,0,0,1-.08-.24,3.14,3.14,0,0,1-.18-.31,6.22,6.22,0,0,1,0-5.3,6.11,6.11,0,0,1,2.21-2.49l0,0,0-.06.22-.22.09,0a.5.5,0,0,1,.12-.08h0a1.17,1.17,0,0,1,.28-.13,6.68,6.68,0,0,1,.9-.35,7.57,7.57,0,0,1,1.25-.2,6.18,6.18,0,0,1,2.14.18l.05,0a5.66,5.66,0,0,1,1.3.48c2.81,1.46,4.87,5.15,6.23,7.84.12.22.21.45.32.67a1.74,1.74,0,0,1,.22.35l.18.44h0v0a25.78,25.78,0,0,1,1.83,5.95,29,29,0,0,1-.55,12c.07-.16.15-.31.21-.46A9.35,9.35,0,0,0,255.41,85.76Z"/><path class="cls-5" d="M242,85.86c0,.11,0,.21-.05.31C242.22,85.77,242.1,85.58,242,85.86Z"/><path class="cls-5" d="M241.91,86.38a1.52,1.52,0,0,1,0-.21l0,0C241.92,86.25,241.91,86.31,241.91,86.38Z"/><path class="cls-3" d="M13.05,110.3c0,.21.09.54,0,0Z"/><path class="cls-3" d="M12.85,106.36c0,1.29.1,2.57.19,3.85v0c.13.76.27,1.51.44,2.25a33.4,33.4,0,0,0,1.19,4c.17.49.94,1.65,0,.41v0a14.94,14.94,0,0,1,.75,1.43,31.48,31.48,0,0,0,2,3.48l.66,1,.09.07a1.09,1.09,0,0,1,.1.11c.15.14.54.55.05.07a1.64,1.64,0,0,1,.14.22h0l0,0,0,0s0,0,0,0l0,0s0,0,0,0l.27.32c.79.92,1.6,1.83,2.47,2.69.48.46,1,.9,1.47,1.34l.71.62h0s-.08-.08-.16-.14l.17.14.19.12c.5.34,1,.71,1.5,1,1,.67,2.13,1.26,3.23,1.83.4.21.8.4,1.2.59-.42-.18-.37-.15.16.07-.39-.18-.26-.14.39.13a37,37,0,0,0,4.93,1.42h.12l.2.05c.38.07.77.13,1.16.18s.74.1,1.11.12h.06a32.38,32.38,0,0,0,9.65-.93c.36-.1.72-.21,1.07-.33a24.66,24.66,0,0,0,4.58-2l.13-.08.06,0c.59-.35,1.22-.88,1.86-1.29a22.23,22.23,0,0,1-4.17-5,20.69,20.69,0,0,1-1.83-4c0-.08,0-.16-.08-.24a19.9,19.9,0,0,1-1-10.47s0,0,0,0,.05-.28.08-.41l.12-.61.18-.74.12-.44.18-.56q.12-.39.27-.78c0-.06,0-.12.07-.19a19.08,19.08,0,0,1,1.13-2.48c.12-.2.25-.39.37-.58s.27-.45.41-.67.47-.72.73-1.06.56-.75.86-1.11l.21-.26A24.05,24.05,0,0,1,59.82,94c.89-.46,1.8-.86,2.73-1.23l.74-.32a26.59,26.59,0,0,1,7-1.61,1.11,1.11,0,0,1,.26,0c.81-.09,1.62-.16,2.43-.18V13a14.94,14.94,0,0,0-10.15,4.83,34.65,34.65,0,0,0-3.64,5.57q-1.83,3-3.67,6-7.66,12.52-15.34,25-7.35,12-14.72,24c-2.47,4-4.92,8.07-7.39,12.09S13.33,98.28,12.85,103C12.85,104.15,12.84,105.25,12.85,106.36Z"/><polygon class="cls-3" points="18.48 123.41 18.48 123.41 18.48 123.41 18.48 123.41 18.48 123.41"/><path class="cls-3" d="M23.49,128.48c.11.09.12.1,0,0h0Z"/><path class="cls-3" d="M18.49,123.42v0h0Z"/><path class="cls-7" d="M209.48,216.81a6.37,6.37,0,0,0,.79-.3c.13,0,.25-.12.37-.18a8.6,8.6,0,0,1-2.67.79A7,7,0,0,0,209.48,216.81Z"/><path class="cls-6" d="M265.84,248.74h0C266,248.41,266.12,248.18,265.84,248.74Z"/><path class="cls-8" d="M265.84,248.74h0C266,248.41,266.12,248.18,265.84,248.74Z"/><path class="cls-6" d="M268.43,224.86V147.64c-9.85-.08-19.71,0-29.57,0l-32.4-.07V200h.12l.33,0a8.61,8.61,0,0,1,3.73,16.37c-.12.06-.24.13-.37.18a6.37,6.37,0,0,1-.79.3,7,7,0,0,1-1.51.31,9.28,9.28,0,0,1-1.06.07l-.45,0v62.44l9.67,7q12.63,9.13,25.26,18.26c0-1.88,0-3.75,0-5.62V274.77a8.75,8.75,0,0,1,.5-3.51c1.43-3.4,5.25-3.95,8.2-5.5a35.23,35.23,0,0,0,9.81-7.64,31.77,31.77,0,0,0,3.54-4.78c.56-.91,1.09-1.85,1.56-2.8.19-.38.34-.78.54-1.15,0,0,.11-.23.23-.47a.44.44,0,0,1,.05-.15A33.46,33.46,0,0,0,268.43,236ZM245,216.29a8.61,8.61,0,0,1-8.52-7.38s0,0,0,0a7.5,7.5,0,0,1-.2-1.79,8.13,8.13,0,0,1,8.14-8.14,7.74,7.74,0,0,1,1.88.22h0A8.61,8.61,0,0,1,245,216.29Z"/><path class="cls-9" d="M268.43,224.86V147.64c-9.85-.08-19.71,0-29.57,0l-32.4-.07V200h.12l.33,0a8.61,8.61,0,0,1,3.73,16.37c-.12.06-.24.13-.37.18a6.37,6.37,0,0,1-.79.3,7,7,0,0,1-1.51.31,9.28,9.28,0,0,1-1.06.07l-.45,0v62.44l9.67,7q12.63,9.13,25.26,18.26c0-1.88,0-3.75,0-5.62V274.77a8.75,8.75,0,0,1,.5-3.51c1.43-3.4,5.25-3.95,8.2-5.5a35.23,35.23,0,0,0,9.81-7.64,31.77,31.77,0,0,0,3.54-4.78c.56-.91,1.09-1.85,1.56-2.8.19-.38.34-.78.54-1.15,0,0,.11-.23.23-.47a.44.44,0,0,1,.05-.15A33.46,33.46,0,0,0,268.43,236ZM245,216.29a8.61,8.61,0,0,1-8.52-7.38s0,0,0,0a7.5,7.5,0,0,1-.2-1.79,8.13,8.13,0,0,1,8.14-8.14,7.74,7.74,0,0,1,1.88.22h0A8.61,8.61,0,0,1,245,216.29Z"/><path class="cls-3" d="M78.49,91C88,92.54,97.33,99.49,99,109.39a1.89,1.89,0,0,1,.09.34,2,2,0,0,1,.07.5h0c0,.21,0,.42.08.64.07.43.13.87.17,1.31a20.64,20.64,0,0,1-7.26,17.36c.46.27.9.57,1.36.84.73.44,1.49.85,2.26,1.23.25.13.52.24.78.36-.15-.07-.14-.05-.07,0a1.75,1.75,0,0,1,.34.15h0a8.67,8.67,0,0,1,1.29.47q1.29.45,2.61.78c.77.2,1.55.36,2.33.5l.74.11.2,0,.81.07c.86.06,1.71.1,2.57.1l.16,0a25.1,25.1,0,0,0,10.81-2.58,28.92,28.92,0,0,0,14.94-31.55,19.28,19.28,0,0,0-2.61-5.66c-2.15-3.48-4.32-6.94-6.45-10.42-5-8.25-10.13-16.46-15.21-24.68L93.54,34.18Q89.73,28,85.92,21.83c-1.32-2.12-2.52-4.27-4.47-5.9a13.16,13.16,0,0,0-5.87-2.76A11.69,11.69,0,0,0,73,13V90.68A29.57,29.57,0,0,1,78.49,91Z"/><path class="cls-10" d="M78.49,91C88,92.54,97.33,99.49,99,109.39a1.89,1.89,0,0,1,.09.34,2,2,0,0,1,.07.5h0c0,.21,0,.42.08.64.07.43.13.87.17,1.31a20.64,20.64,0,0,1-7.26,17.36c.46.27.9.57,1.36.84.73.44,1.49.85,2.26,1.23.25.13.52.24.78.36-.15-.07-.14-.05-.07,0a1.75,1.75,0,0,1,.34.15h0a8.67,8.67,0,0,1,1.29.47q1.29.45,2.61.78c.77.2,1.55.36,2.33.5l.74.11.2,0,.81.07c.86.06,1.71.1,2.57.1l.16,0a25.1,25.1,0,0,0,10.81-2.58,28.92,28.92,0,0,0,14.94-31.55,19.28,19.28,0,0,0-2.61-5.66c-2.15-3.48-4.32-6.94-6.45-10.42-5-8.25-10.13-16.46-15.21-24.68L93.54,34.18Q89.73,28,85.92,21.83c-1.32-2.12-2.52-4.27-4.47-5.9a13.16,13.16,0,0,0-5.87-2.76A11.69,11.69,0,0,0,73,13V90.68A29.57,29.57,0,0,1,78.49,91Z"/><path class="cls-2" d="M33.88,267.11l-.11-.05Z"/><path class="cls-11" d="M33.88,267.11l-.11-.05Z"/><path class="cls-2" d="M70.18,104.62a14.81,14.81,0,0,0-3.54,1.21c-.71.37-1.51,1.07-2.33,1.44a9.8,9.8,0,0,0-3.46,5.14A7.94,7.94,0,0,0,60.7,114c0,.13,0,.13,0,0v0c0,.17.06.43.06.44l.12.51c.14.26.26.53.38.8.26.6.77,1.23,1.08,1.88a19.07,19.07,0,0,0,2,2,1.64,1.64,0,0,1,.26.27A12.11,12.11,0,0,1,69,128.2a11.42,11.42,0,0,1-.17,4.87c-1.1,4.08-4.54,7-8.05,9a41.62,41.62,0,0,1-14.57,5.15,52.18,52.18,0,0,1-7.81.49,40.88,40.88,0,0,1-6,0l-7.13,0-12.44,0v85c0,1,0,2.07,0,3.1a34.58,34.58,0,0,0,1.89,11.12c.21.63.44,1.26.69,1.88q.54,1.23,1.17,2.4a42.61,42.61,0,0,0,3.24,5.13,72.8,72.8,0,0,0,6,6l.05,0c.15.11.3.22.44.34l0,0a41.63,41.63,0,0,0,7.08,4.07l.18.09,0,0,.08,0c.39.15.78.28,1.17.42A38.34,38.34,0,0,0,40.46,269c.42.09.82.16,1.22.23h.09a1.82,1.82,0,0,1,.46.06c1.48.12,3.45.21,5.12.22,2.51,0,5,0,7.53,0a20.56,20.56,0,0,1-6.24-20c2.88-11.23,13.73-17.21,24.65-17.4V104.28A14.81,14.81,0,0,0,70.18,104.62Z"/><path class="cls-11" d="M70.18,104.62a14.81,14.81,0,0,0-3.54,1.21c-.71.37-1.51,1.07-2.33,1.44a9.8,9.8,0,0,0-3.46,5.14A7.94,7.94,0,0,0,60.7,114c0,.13,0,.13,0,0v0c0,.17.06.43.06.44l.12.51c.14.26.26.53.38.8.26.6.77,1.23,1.08,1.88a19.07,19.07,0,0,0,2,2,1.64,1.64,0,0,1,.26.27A12.11,12.11,0,0,1,69,128.2a11.42,11.42,0,0,1-.17,4.87c-1.1,4.08-4.54,7-8.05,9a41.62,41.62,0,0,1-14.57,5.15,52.18,52.18,0,0,1-7.81.49,40.88,40.88,0,0,1-6,0l-7.13,0-12.44,0v85c0,1,0,2.07,0,3.1a34.58,34.58,0,0,0,1.89,11.12c.21.63.44,1.26.69,1.88q.54,1.23,1.17,2.4a42.61,42.61,0,0,0,3.24,5.13,72.8,72.8,0,0,0,6,6l.05,0c.15.11.3.22.44.34l0,0a41.63,41.63,0,0,0,7.08,4.07l.18.09,0,0,.08,0c.39.15.78.28,1.17.42A38.34,38.34,0,0,0,40.46,269c.42.09.82.16,1.22.23h.09a1.82,1.82,0,0,1,.46.06c1.48.12,3.45.21,5.12.22,2.51,0,5,0,7.53,0a20.56,20.56,0,0,1-6.24-20c2.88-11.23,13.73-17.21,24.65-17.4V104.28A14.81,14.81,0,0,0,70.18,104.62Z"/><path class="cls-12" d="M227.83,134.3Z"/><path class="cls-12" d="M23.47,128.46h0l-.17-.14C23.39,128.38,23.42,128.42,23.47,128.46Z"/><path class="cls-12" d="M281.14,221.32V147.2c0-14.15,0-28.31,0-42.47v-46c0-5,.18-9.89-.31-14.82a50.79,50.79,0,0,0-6.62-21.42A46,46,0,0,0,258.42,6.58,48.67,48.67,0,0,0,233.81,0c-7.73-.09-15.47,0-23.2,0H55.74c-2.68,0-5.35,0-8,0-14,0-27.33,5.61-36.43,16.44a47.07,47.07,0,0,0-10,20.15C-.63,45.28.16,54.45.17,63.24V87.45q0,8.11,0,16.22a2,2,0,0,0,0,.24,37.38,37.38,0,0,0,0,4.85,2,2,0,0,0,0,.24q0,13.2,0,26.39c0,1.89-.11,3.83,0,5.73,0,0,0,.08,0,.11v.48h0v92.65C.11,251,8.22,267,22.72,275.63a47.23,47.23,0,0,0,16.78,6,86.21,86.21,0,0,0,13.25.57c3.64,0,7.32.33,10.56-1.69a11.94,11.94,0,0,0,5.26-13.31,12.54,12.54,0,0,0-4.44-6.4l0-.05a17.28,17.28,0,0,1-1.82-1.91A19.52,19.52,0,0,1,61.19,257c-.19-.62-.34-1.23-.47-1.85a9.68,9.68,0,0,1,.5-3.54l.13-.26c0-.11.1-.21.14-.31a11,11,0,0,0,.7-1.15h0l0-.09h0a1.33,1.33,0,0,0,.14-.19,2.61,2.61,0,0,0,.17-.28l.14-.1a12.32,12.32,0,0,0,.88-.89,15.11,15.11,0,0,1,3.79-2.45,21.22,21.22,0,0,1,3.92-1.06.24.24,0,0,0,.11,0c-.13,0,0,0,.1,0,1.46-.11,2.88,0,4.33,0a1.55,1.55,0,0,0,.31.07,1.24,1.24,0,0,0,.43.06c.83.18,1.73.4,2.64.66.13,0,.26.1.38.15l.42.19c.87.69,2.15,1.14,3.08,1.74a18.51,18.51,0,0,1,2,2,16,16,0,0,1,1.13,1.91,18,18,0,0,1,.48,1.74c0,.61,0,1.21,0,1.82,0,.13,0,.26,0,.39-.19.62-.34,1.24-.55,1.85-1.15,2.41-3.37,3.69-5,5.67a11.71,11.71,0,0,0-2.47,9.24,12.23,12.23,0,0,0,4.66,7.73c2.88,2.22,6.31,2.39,9.82,2.31,5.16-.12,10.33,0,15.49,0h80c.1.23.5.63.37.38.33.65,2,1.41,2.58,1.87l2.29,1.66,5.16,3.74,10.48,7.59q10.42,7.56,20.86,15.08l5,3.61a56.79,56.79,0,0,0,5.1,3.63,10,10,0,0,0,9,.11,8.18,8.18,0,0,0,4.62-6.9c.09-1.24,0-2.5,0-3.74V277.89a47.18,47.18,0,0,0,27-40.67C281.3,231.93,281.14,226.6,281.14,221.32Zm-15.3,27.42c.28-.56.17-.33,0,0Zm0,0a.44.44,0,0,0-.05.15c-.12.24-.24.47-.23.47-.2.37-.35.77-.54,1.15-.47,1-1,1.89-1.56,2.8a31.77,31.77,0,0,1-3.54,4.78,35.23,35.23,0,0,1-9.81,7.64c-3,1.55-6.77,2.1-8.2,5.5a8.75,8.75,0,0,0-.5,3.51v24.49c0,1.87,0,3.74,0,5.62q-12.66-9.09-25.26-18.26l-9.67-7-4.21-3.05c-2-1.47-4.06-2.93-6.08-4.41s-3.87-2.59-6.59-2.68c-10.8-.36-21.72,0-32.53,0h-9.72V227.83c0-2.74.08-5.49,0-8.23a1.94,1.94,0,0,0-.08-.5,12,12,0,0,0-4.88-8.11l-.32-.23-.37-.24a13,13,0,0,0-1.48-.78h0c-.25-.11-.51-.21-.77-.3a13,13,0,0,0-3.61-.81,2.71,2.71,0,0,0-.41,0,2.9,2.9,0,0,0-.43,0,12.14,12.14,0,0,0-5.05,1.25,13.46,13.46,0,0,0-2.32,1.56,19,19,0,0,0-1.62,1.76,23.54,23.54,0,0,0-1.71,1.77l-.34.3.16-.12c-.18.14-.36.3-.56.43a15.62,15.62,0,0,1-1.61.87h0l-.11,0,.08,0c-.81.08-1.65.41-2.53.44a7.35,7.35,0,0,1-3.75-.9c-.33-.19-.66-.41-1-.62l-.28-.23c-.22-.21-.45-.41-.66-.62a13.6,13.6,0,0,1-1.09-1.19c-.13-.17.05,0,.08.09q-.33-.48-.63-1c-.31-.53-.58-1.09-.87-1.64a12.75,12.75,0,0,1-1-2.83c-.13-.52-.2-1-.33-1.56,0-.09,0-.31-.08-.47s0-.52,0-.54c-.29-4.74,1.15-9.47,4.81-12.63.65-.42,1.38-.87,1.91-1.18a3.88,3.88,0,0,1,.44-.2l.53-.11c.49-.14,1-.23,1.5-.34a8.48,8.48,0,0,1,5.23,1.78c.29.27.58.54.85.82s.51.58.78.86.4.54.62.8a3.9,3.9,0,0,0,.33.38,4.31,4.31,0,0,0,.62.51l0,0,.5.43a9.37,9.37,0,0,0,1,.7,2.19,2.19,0,0,0,.33.25,12.05,12.05,0,0,0,17.28-5.44c1.09-2.59.82-5.47.82-8.22V158.6c0-3.71,0-7.42,0-11.13q29.55,0,59.1.07l32.4.07c9.86,0,19.72-.05,29.57,0V236A33.46,33.46,0,0,1,265.82,248.77Zm-166.6,2.71c-1.07-7.82-6.76-14-13.82-17.07a29,29,0,0,0-12.11-2.35c-10.92.19-21.77,6.17-24.65,17.4a20.56,20.56,0,0,0,6.24,20c-2.51,0-5,0-7.53,0-1.67,0-3.64-.1-5.12-.22a1.82,1.82,0,0,0-.46-.06h-.09c-.4-.07-.8-.14-1.22-.23a38.34,38.34,0,0,1-5.55-1.53c-.39-.14-.78-.27-1.17-.42l-.08,0,0,0-.18-.09a41.63,41.63,0,0,1-7.08-4.07l0,0c-.14-.12-.29-.23-.44-.34l-.05,0a72.8,72.8,0,0,1-6-6,42.61,42.61,0,0,1-3.24-5.13q-.63-1.17-1.17-2.4c-.25-.62-.48-1.25-.69-1.88a34.58,34.58,0,0,1-1.89-11.12c0-1,0-2.07,0-3.1v-85l12.44,0,7.13,0a40.88,40.88,0,0,0,6,0,52.18,52.18,0,0,0,7.81-.49,41.62,41.62,0,0,0,14.57-5.15c3.51-2,7-5,8.05-9A11.42,11.42,0,0,0,69,128.2a12.11,12.11,0,0,0-4.4-8.24,1.64,1.64,0,0,0-.26-.27,19.07,19.07,0,0,1-2-2c-.31-.65-.82-1.28-1.08-1.88-.12-.27-.24-.54-.38-.8l-.12-.51s0-.27-.06-.44v0c0,.12,0,.12,0,0a7.94,7.94,0,0,1,.15-1.62,9.8,9.8,0,0,1,3.46-5.14c.82-.37,1.62-1.07,2.33-1.44a15.61,15.61,0,0,1,6.65-1.55c.57,0,1.14,0,1.72,0,0,0,1,.12,1,.1a16.61,16.61,0,0,1,5.29,1.73A12.5,12.5,0,0,1,83.89,108c.41.39.79.9,1.23,1.31l.33.53a7.29,7.29,0,0,1-.12,6.75,15.24,15.24,0,0,1-3.68,4,11.2,11.2,0,0,0-2.85,4.23,11.94,11.94,0,0,0,.84,10.6,1.46,1.46,0,0,0,.17.24,12.46,12.46,0,0,0,3.34,3.93l.2.17h0c.13.1.24.21.37.3a2.08,2.08,0,0,0,.35.2,40.54,40.54,0,0,0,23.79,7.59q13.26,0,26.53,0v25.92c0,3.74-.09,7.48-.06,11.22a.27.27,0,0,0-.08-.07l-.06-.09a1.62,1.62,0,0,0-.63-.64c-7-6.55-17.41-8-25.53-2.62-8.49,5.67-12.26,16.43-11,26.33a27,27,0,0,0,7.42,15.47,8.61,8.61,0,0,0,1.2,1.13,19.55,19.55,0,0,0,2.69,2l.27.21h0c.27.16.53.32.8.45a1.26,1.26,0,0,0,.34.15,17.65,17.65,0,0,0,1.77.82,1.71,1.71,0,0,0,.33.17,20,20,0,0,0,14.69.19,22.1,22.1,0,0,0,5.88-3.48,18.4,18.4,0,0,0,1.92-1.83V269.5H92.52A20.69,20.69,0,0,0,99.22,251.48ZM33.88,267.11l-.11-.05ZM13.12,41.87c0-.08,0-.18,0-.27a43,43,0,0,1,1.92-7.25c0-.09.32-.83.31-.84s.1-.24.16-.36c.46-1,.94-2,1.47-2.92.63-1.12,1.33-2.2,2.05-3.26.27-.39.6-.77.85-1.18,4.13-4.93,8.85-8.8,15-11,5.33-1.91,10.46-2.07,16-2.06-1.1,1.65-2.1,3.38-3.14,5.07l-5.26,8.6q-5.51,9-11,18Q22.15,59.61,12.85,74.82V46.44c0-1.26.05-2.52.18-3.78C13.05,42.4,13.09,42.13,13.12,41.87Zm0,.08c0,.2,0,.14,0,0Zm-.06,68.35c.09.54,0,.21,0,0Zm5.44,13.12h0v0h0Zm163,10.81c-.85-1.84-1.91-3.59-2.74-5.43a70.51,70.51,0,0,1-3.32-9.23,72.81,72.81,0,0,1-2.86-19.84,71.12,71.12,0,0,1,3.62-22.6A67.36,67.36,0,0,0,193,125.38a74.65,74.65,0,0,0,9.58,8.89Q192.07,134.27,181.53,134.23Zm74.32-106.5h0Zm7.77,2.82a2,2,0,0,0,.27.17l-.08,0-.22-.16Zm-86.05,17a84.72,84.72,0,0,0-17.48,57.21,88,88,0,0,0,7.3,29.42l-20.18,0c0-9.85-.11-19.8-.11-29.57V47.36c2.5-2.21,4.83-4.6,7.45-6.7a101.46,101.46,0,0,1,9.09-6.44,115.33,115.33,0,0,1,19.77-10.08,1.92,1.92,0,0,0,.51-.28,79.08,79.08,0,0,1,21.73-5.28,80.72,80.72,0,0,1,12.44,0C202.34,24.53,187.89,34.23,177.57,47.59ZM177,12.75c-1.47.6-2.94,1.23-4.39,1.89A126.09,126.09,0,0,0,155.5,24q-4.09,2.68-7.93,5.72l-.47.35V12.75ZM134.39,73.88v2.44C128,66,121.62,55.57,115.23,45.2q-5.76-9.33-11.53-18.67c-1.81-2.94-3.61-5.88-5.43-8.82-1-1.66-2-3.33-3.07-5h39.19V73.88ZM114.54,215.35h0l0,0ZM268.42,49.85V119c0,5.13,0,10.26-.08,15.4-13.5-.05-27,0-40.51-.07h0c-.68-.25-1.39-.46-2.05-.72a47.19,47.19,0,0,1-5.5-2.66,69.48,69.48,0,0,1-9.42-6.23,59.82,59.82,0,0,1-14.78-16.6,54.08,54.08,0,0,1-6.29-37.36,55.68,55.68,0,0,1,2.3-8.43,51.74,51.74,0,0,1,6.68-12.56,47.88,47.88,0,0,0-.65,25.34,47.17,47.17,0,0,0,7.15,15.52c1.41,2,3,3.92,4.57,5.78a40.55,40.55,0,0,0,2.84,3,13,13,0,0,0,1.34,1.12l.14.11a2.12,2.12,0,0,0,.38.29l.07,0h0l0,0h0l.14.1a2,2,0,0,0,.28.23l.06,0c-.68-.26.07.1.63.39a27.21,27.21,0,0,0,5.92,2.75,27.5,27.5,0,0,0,2.66.72l1.13.22a27.65,27.65,0,0,0,6.61.37l.37,0a25.06,25.06,0,0,0,20.73-14.09,26.43,26.43,0,0,0,1.4-3.66c.08-.28.16-.55.23-.82a29,29,0,0,0,.55-12,25.78,25.78,0,0,0-1.83-5.95v0h0l-.18-.44a1.74,1.74,0,0,0-.22-.35c-.11-.22-.2-.45-.32-.67-1.36-2.69-3.42-6.38-6.23-7.84a5.66,5.66,0,0,0-1.3-.48l-.05,0a6.18,6.18,0,0,0-2.14-.18,7.57,7.57,0,0,0-1.25.2,6.68,6.68,0,0,0-.9.35,1.17,1.17,0,0,0-.28.13h0a.5.5,0,0,0-.12.08l-.09,0-.22.22,0,.06,0,0a6.11,6.11,0,0,0-2.21,2.49,6.22,6.22,0,0,0,0,5.3,3.14,3.14,0,0,0,.18.31,2.25,2.25,0,0,0,.08.24,12.27,12.27,0,0,0,1.74,2.21.92.92,0,0,0,.19.25c.14.22.29.43.43.64a16.17,16.17,0,0,1,2.52,10.27c-.15.49-.2,1-.32,1.48-.18.72-.6,1.53-.76,2.29.11-.28.23-.09-.05.31a1.52,1.52,0,0,0,0,.21c0-.07,0-.13,0-.19a.21.21,0,0,1,0,.06c0,.38,0,.33,0-.15-.1.17-.19.35-.28.52a7.43,7.43,0,0,0-.95,1.5c-.43.52-.88,1-1.36,1.52l-.25.26-.27.22a13.77,13.77,0,0,1-1.36,1,12.88,12.88,0,0,1-6.29,2.07,15.5,15.5,0,0,1-5.73-.82A14.23,14.23,0,0,1,222.49,91c-.3-.18-.55-.41-.83-.59-.43-.39-.83-.81-1.23-1.24-.21-.22-.41-.45-.62-.68s-.33-.39-.51-.58c-.34-.45-.72-.87-1.11-1.31a35.24,35.24,0,0,1-7.41-13.32,35.24,35.24,0,0,1,.27-20.59,34.06,34.06,0,0,1,8.5-13.93c.64-.62,1.29-1.23,2-1.79,5.11-4.19,11.94-6.48,18.28-8a60.33,60.33,0,0,1,7.06-1.26h0l.89-.11c.71-.07,1.41-.11,2.12-.16,1.16,0,2.34,0,3.45.08.78,0,1.56.12,2.34.19h0c-.44,0-.19,0,.06,0l1,.16a29.82,29.82,0,0,1,3.39,1c.83.38,1.66.78,2.47,1.2l.93.47c0,.05.67.59.81.72s.43.46.65.68l.1.08a.61.61,0,0,0,.07.14c-.16-.15-.1-.09,0,0a34,34,0,0,1,3.21,14.28ZM18.1,90.52c2.47-4,4.92-8.06,7.39-12.09q7.38-12,14.72-24,7.68-12.52,15.34-25,1.85-3,3.67-6a34.65,34.65,0,0,1,3.64-5.57A14.94,14.94,0,0,1,73,13a11.69,11.69,0,0,1,2.57.21,13.16,13.16,0,0,1,5.87,2.76c2,1.63,3.15,3.78,4.47,5.9Q89.75,28,93.54,34.18L109,59.31c5.08,8.22,10.18,16.43,15.21,24.68,2.13,3.48,4.3,6.94,6.45,10.42a19.28,19.28,0,0,1,2.61,5.66,28.92,28.92,0,0,1-14.94,31.55,25.1,25.1,0,0,1-10.81,2.58l-.16,0c-.86,0-1.71,0-2.57-.1L104,134l-.2,0-.74-.11c-.78-.14-1.56-.3-2.33-.5s-1.75-.48-2.61-.78a8.67,8.67,0,0,0-1.29-.47h0a1.75,1.75,0,0,0-.34-.15c-.07-.05-.08-.07.07,0-.26-.12-.53-.23-.78-.36-.77-.38-1.53-.79-2.26-1.23-.46-.27-.9-.57-1.36-.84a20.64,20.64,0,0,0,7.26-17.36c0-.44-.1-.88-.17-1.31,0-.22-.06-.43-.08-.64h0a2,2,0,0,0-.07-.5,1.89,1.89,0,0,0-.09-.34C97.33,99.49,88,92.54,78.49,91A29.57,29.57,0,0,0,73,90.68c-.81,0-1.62.09-2.43.18a1.11,1.11,0,0,0-.26,0,26.59,26.59,0,0,0-7,1.61l-.74.32c-.93.37-1.84.77-2.73,1.23a24.05,24.05,0,0,0-7.12,5.71l-.21.26c-.3.36-.59.73-.86,1.11s-.5.7-.73,1.06-.28.44-.41.67-.25.38-.37.58A19.08,19.08,0,0,0,49,105.88c0,.07-.05.13-.07.19q-.15.39-.27.78l-.18.56-.12.44-.18.74-.12.61c0,.13-.06.27-.08.41s0,0,0,0a19.9,19.9,0,0,0,1,10.47c0,.08,0,.16.08.24a20.69,20.69,0,0,0,1.83,4,22.23,22.23,0,0,0,4.17,5c-.64.41-1.27.94-1.86,1.29l-.06,0-.13.08a24.66,24.66,0,0,1-4.58,2c-.35.12-.71.23-1.07.33a32.38,32.38,0,0,1-9.65.93h-.06c-.37,0-.74-.08-1.11-.12s-.78-.11-1.16-.18l-.2-.05h-.12a37,37,0,0,1-4.93-1.42c-.65-.27-.78-.31-.39-.13-.53-.22-.58-.25-.16-.07-.4-.19-.8-.38-1.2-.59-1.1-.57-2.19-1.16-3.23-1.83-.51-.33-1-.7-1.5-1l-.19-.12c.13.12.12.11,0,0l0,0h0l-.71-.62c-.51-.44-1-.88-1.47-1.34-.87-.86-1.68-1.77-2.47-2.69l-.27-.32s0,0,0,0l0,0s0,0,0,0l0,0,0,0h0a1.64,1.64,0,0,0-.14-.22c.49.48.1.07-.05-.07a1.09,1.09,0,0,0-.1-.11l-.09-.07-.66-1a31.48,31.48,0,0,1-2-3.48,14.94,14.94,0,0,0-.75-1.43v0c.91,1.24.14.08,0-.41a33.4,33.4,0,0,1-1.19-4c-.17-.74-.31-1.49-.44-2.25v0c-.09-1.28-.18-2.56-.19-3.85,0-1.11,0-2.21,0-3.32C13.33,98.28,15.66,94.49,18.1,90.52Z"/><path class="cls-12" d="M241.94,86.17c0-.1,0-.2.05-.31a1.68,1.68,0,0,0-.07.33Z"/><path class="cls-12" d="M168.81,200a8.62,8.62,0,0,0-3.26,16.59l.09,0c.22.09.45.17.68.24h0a7.72,7.72,0,0,0,.83.2c.25.05.5.09.76.12a8.51,8.51,0,0,0,.88,0,8.62,8.62,0,1,0,0-17.23Z"/><path class="cls-12" d="M198.3,208.58a8.61,8.61,0,0,0,8.16,8.59l.45,0a9.28,9.28,0,0,0,1.06-.07A8.61,8.61,0,0,0,206.91,200l-.33,0A8.6,8.6,0,0,0,198.3,208.58Z"/><path class="cls-12" d="M246.36,199.17a8.2,8.2,0,0,0-1.32-.11,8.61,8.61,0,0,0-8.61,8.61,10.19,10.19,0,0,0,.09,1.24,8.61,8.61,0,1,0,9.84-9.74Z"/></g></g></g></svg>